<mxfile host="app.diagrams.net" modified="2023-01-31T21:03:46.002Z" agent="5.0 (Windows NT 10.0; Win64; x64) AppleWebKit/537.36 (KHTML, like Gecko) Chrome/109.0.0.0 Safari/537.36" etag="cK-ncHLrM6vLI7X1p0Ln" version="20.8.13" type="github">
  <diagram name="Page-1" id="ucB_lO4Q2C9gVS_BFvmu">
    <mxGraphModel dx="2150" dy="975" grid="1" gridSize="10" guides="1" tooltips="1" connect="1" arrows="1" fold="1" page="0" pageScale="1" pageWidth="850" pageHeight="1100" math="0" shadow="0">
      <root>
        <mxCell id="0" />
        <mxCell id="1" parent="0" />
        <mxCell id="c53mcl23ytwHgsnoRXT7-5" style="edgeStyle=orthogonalEdgeStyle;rounded=0;orthogonalLoop=1;jettySize=auto;html=1;entryX=0.488;entryY=-0.002;entryDx=0;entryDy=0;entryPerimeter=0;" parent="1" source="c53mcl23ytwHgsnoRXT7-2" target="c53mcl23ytwHgsnoRXT7-20" edge="1">
          <mxGeometry relative="1" as="geometry">
            <mxPoint x="150" y="120" as="targetPoint" />
          </mxGeometry>
        </mxCell>
        <mxCell id="c53mcl23ytwHgsnoRXT7-31" style="edgeStyle=orthogonalEdgeStyle;rounded=0;orthogonalLoop=1;jettySize=auto;html=1;entryX=0.507;entryY=0.003;entryDx=0;entryDy=0;entryPerimeter=0;" parent="1" source="c53mcl23ytwHgsnoRXT7-2" target="c53mcl23ytwHgsnoRXT7-58" edge="1">
          <mxGeometry relative="1" as="geometry">
            <mxPoint x="800" y="60" as="targetPoint" />
          </mxGeometry>
        </mxCell>
        <mxCell id="c53mcl23ytwHgsnoRXT7-2" value="" style="ellipse;html=1;shape=startState;fillColor=#000000;strokeColor=#ff0000;" parent="1" vertex="1">
          <mxGeometry x="405" y="40" width="40" height="40" as="geometry" />
        </mxCell>
        <mxCell id="c53mcl23ytwHgsnoRXT7-6" value="&lt;b&gt;:HR&lt;/b&gt;" style="html=1;" parent="1" vertex="1">
          <mxGeometry x="-50" y="140" width="110" height="50" as="geometry" />
        </mxCell>
        <mxCell id="c53mcl23ytwHgsnoRXT7-9" style="edgeStyle=orthogonalEdgeStyle;rounded=0;orthogonalLoop=1;jettySize=auto;html=1;exitX=0.5;exitY=1;exitDx=0;exitDy=0;" parent="1" source="c53mcl23ytwHgsnoRXT7-6" target="c53mcl23ytwHgsnoRXT7-8" edge="1">
          <mxGeometry relative="1" as="geometry" />
        </mxCell>
        <mxCell id="c53mcl23ytwHgsnoRXT7-15" style="edgeStyle=orthogonalEdgeStyle;rounded=0;orthogonalLoop=1;jettySize=auto;html=1;entryX=0.811;entryY=0.079;entryDx=0;entryDy=0;entryPerimeter=0;exitX=0.144;exitY=0.075;exitDx=0;exitDy=0;exitPerimeter=0;" parent="1" source="c53mcl23ytwHgsnoRXT7-12" target="c53mcl23ytwHgsnoRXT7-8" edge="1">
          <mxGeometry relative="1" as="geometry">
            <mxPoint x="20" y="240" as="targetPoint" />
          </mxGeometry>
        </mxCell>
        <mxCell id="c53mcl23ytwHgsnoRXT7-16" value="Request comes to HR" style="edgeLabel;html=1;align=center;verticalAlign=middle;resizable=0;points=[];" parent="c53mcl23ytwHgsnoRXT7-15" vertex="1" connectable="0">
          <mxGeometry x="-0.0936" y="1" relative="1" as="geometry">
            <mxPoint x="-8" as="offset" />
          </mxGeometry>
        </mxCell>
        <mxCell id="c53mcl23ytwHgsnoRXT7-17" style="edgeStyle=orthogonalEdgeStyle;rounded=0;orthogonalLoop=1;jettySize=auto;html=1;" parent="1" edge="1">
          <mxGeometry relative="1" as="geometry">
            <mxPoint x="1" y="330" as="targetPoint" />
            <mxPoint y="279" as="sourcePoint" />
            <Array as="points">
              <mxPoint x="1" y="279" />
              <mxPoint x="-90" y="279" />
              <mxPoint x="-90" y="330" />
              <mxPoint x="-17" y="330" />
              <mxPoint x="1" y="329" />
            </Array>
          </mxGeometry>
        </mxCell>
        <mxCell id="c53mcl23ytwHgsnoRXT7-18" value="Reviews request" style="edgeLabel;html=1;align=center;verticalAlign=middle;resizable=0;points=[];" parent="c53mcl23ytwHgsnoRXT7-17" vertex="1" connectable="0">
          <mxGeometry x="-0.4661" y="-1" relative="1" as="geometry">
            <mxPoint x="-38" y="22" as="offset" />
          </mxGeometry>
        </mxCell>
        <mxCell id="c53mcl23ytwHgsnoRXT7-8" value="" style="html=1;points=[];perimeter=orthogonalPerimeter;fillColor=strokeColor;" parent="1" vertex="1">
          <mxGeometry x="2.5" y="220" width="5" height="140" as="geometry" />
        </mxCell>
        <mxCell id="c53mcl23ytwHgsnoRXT7-10" value="&lt;b&gt;:requestForNot&lt;br&gt;Available&lt;/b&gt;" style="html=1;" parent="1" vertex="1">
          <mxGeometry x="140" y="140" width="110" height="50" as="geometry" />
        </mxCell>
        <mxCell id="c53mcl23ytwHgsnoRXT7-11" style="edgeStyle=orthogonalEdgeStyle;rounded=0;orthogonalLoop=1;jettySize=auto;html=1;exitX=0.5;exitY=1;exitDx=0;exitDy=0;" parent="1" source="c53mcl23ytwHgsnoRXT7-10" target="c53mcl23ytwHgsnoRXT7-12" edge="1">
          <mxGeometry relative="1" as="geometry" />
        </mxCell>
        <mxCell id="c53mcl23ytwHgsnoRXT7-12" value="" style="html=1;points=[];perimeter=orthogonalPerimeter;fillColor=strokeColor;" parent="1" vertex="1">
          <mxGeometry x="192.5" y="220" width="5" height="140" as="geometry" />
        </mxCell>
        <mxCell id="c53mcl23ytwHgsnoRXT7-21" style="edgeStyle=orthogonalEdgeStyle;rounded=0;orthogonalLoop=1;jettySize=auto;html=1;" parent="1" source="c53mcl23ytwHgsnoRXT7-20" target="c53mcl23ytwHgsnoRXT7-25" edge="1">
          <mxGeometry relative="1" as="geometry">
            <mxPoint x="50.07999999999993" y="440" as="targetPoint" />
          </mxGeometry>
        </mxCell>
        <mxCell id="Tr6KO6QDgBk20_RHtYuu-2" style="edgeStyle=orthogonalEdgeStyle;rounded=0;orthogonalLoop=1;jettySize=auto;html=1;entryX=0;entryY=0.5;entryDx=0;entryDy=0;fontSize=12;exitX=0.717;exitY=1.01;exitDx=0;exitDy=0;exitPerimeter=0;" edge="1" parent="1" source="c53mcl23ytwHgsnoRXT7-20" target="Tr6KO6QDgBk20_RHtYuu-1">
          <mxGeometry relative="1" as="geometry">
            <Array as="points">
              <mxPoint x="150" y="690" />
            </Array>
          </mxGeometry>
        </mxCell>
        <mxCell id="c53mcl23ytwHgsnoRXT7-20" value="HR approval" style="shape=umlFrame;whiteSpace=wrap;html=1;width=120;height=30;boundedLbl=1;verticalAlign=middle;align=left;spacingLeft=5;" parent="1" vertex="1">
          <mxGeometry x="-180" y="120" width="460" height="260" as="geometry" />
        </mxCell>
        <mxCell id="c53mcl23ytwHgsnoRXT7-26" style="edgeStyle=orthogonalEdgeStyle;rounded=0;orthogonalLoop=1;jettySize=auto;html=1;" parent="1" source="c53mcl23ytwHgsnoRXT7-25" target="c53mcl23ytwHgsnoRXT7-28" edge="1">
          <mxGeometry relative="1" as="geometry">
            <mxPoint x="-30" y="590" as="targetPoint" />
          </mxGeometry>
        </mxCell>
        <mxCell id="c53mcl23ytwHgsnoRXT7-27" value="No" style="edgeLabel;html=1;align=center;verticalAlign=middle;resizable=0;points=[];" parent="c53mcl23ytwHgsnoRXT7-26" vertex="1" connectable="0">
          <mxGeometry x="0.4389" y="3" relative="1" as="geometry">
            <mxPoint as="offset" />
          </mxGeometry>
        </mxCell>
        <mxCell id="c53mcl23ytwHgsnoRXT7-29" style="edgeStyle=orthogonalEdgeStyle;rounded=0;orthogonalLoop=1;jettySize=auto;html=1;entryX=-0.005;entryY=0.511;entryDx=0;entryDy=0;entryPerimeter=0;" parent="1" source="c53mcl23ytwHgsnoRXT7-25" target="c53mcl23ytwHgsnoRXT7-58" edge="1">
          <mxGeometry relative="1" as="geometry">
            <mxPoint x="393.8400390625" y="490" as="targetPoint" />
          </mxGeometry>
        </mxCell>
        <mxCell id="c53mcl23ytwHgsnoRXT7-30" value="Yes" style="edgeLabel;html=1;align=center;verticalAlign=middle;resizable=0;points=[];" parent="c53mcl23ytwHgsnoRXT7-29" vertex="1" connectable="0">
          <mxGeometry x="-0.3712" y="-3" relative="1" as="geometry">
            <mxPoint as="offset" />
          </mxGeometry>
        </mxCell>
        <mxCell id="c53mcl23ytwHgsnoRXT7-25" value="Did the HR&amp;nbsp;&lt;br&gt;approve" style="rhombus;whiteSpace=wrap;html=1;" parent="1" vertex="1">
          <mxGeometry x="9.999999999999929" y="450" width="80" height="80" as="geometry" />
        </mxCell>
        <mxCell id="c53mcl23ytwHgsnoRXT7-28" value="" style="ellipse;html=1;shape=endState;fillColor=#000000;strokeColor=#ff0000;" parent="1" vertex="1">
          <mxGeometry x="-45" y="575" width="30" height="30" as="geometry" />
        </mxCell>
        <mxCell id="c53mcl23ytwHgsnoRXT7-32" value=":finance" style="html=1;" parent="1" vertex="1">
          <mxGeometry x="690" y="140" width="110" height="50" as="geometry" />
        </mxCell>
        <mxCell id="c53mcl23ytwHgsnoRXT7-33" value=":supplier" style="html=1;" parent="1" vertex="1">
          <mxGeometry x="980" y="140" width="110" height="50" as="geometry" />
        </mxCell>
        <mxCell id="c53mcl23ytwHgsnoRXT7-35" style="edgeStyle=orthogonalEdgeStyle;rounded=0;orthogonalLoop=1;jettySize=auto;html=1;exitX=0.5;exitY=1;exitDx=0;exitDy=0;" parent="1" source="c53mcl23ytwHgsnoRXT7-32" target="c53mcl23ytwHgsnoRXT7-34" edge="1">
          <mxGeometry relative="1" as="geometry" />
        </mxCell>
        <mxCell id="c53mcl23ytwHgsnoRXT7-40" style="edgeStyle=orthogonalEdgeStyle;rounded=0;orthogonalLoop=1;jettySize=auto;html=1;" parent="1" source="c53mcl23ytwHgsnoRXT7-34" edge="1">
          <mxGeometry relative="1" as="geometry">
            <mxPoint x="1030" y="250" as="targetPoint" />
            <Array as="points">
              <mxPoint x="1010" y="250" />
              <mxPoint x="1010" y="250" />
            </Array>
          </mxGeometry>
        </mxCell>
        <mxCell id="c53mcl23ytwHgsnoRXT7-41" value="Sends supplier request" style="edgeLabel;html=1;align=center;verticalAlign=middle;resizable=0;points=[];" parent="c53mcl23ytwHgsnoRXT7-40" vertex="1" connectable="0">
          <mxGeometry x="-0.1367" y="-1" relative="1" as="geometry">
            <mxPoint x="20" as="offset" />
          </mxGeometry>
        </mxCell>
        <mxCell id="c53mcl23ytwHgsnoRXT7-34" value="" style="html=1;points=[];perimeter=orthogonalPerimeter;fillColor=strokeColor;" parent="1" vertex="1">
          <mxGeometry x="742.5" y="220" width="5" height="300" as="geometry" />
        </mxCell>
        <mxCell id="c53mcl23ytwHgsnoRXT7-38" style="edgeStyle=orthogonalEdgeStyle;rounded=0;orthogonalLoop=1;jettySize=auto;html=1;exitX=0.5;exitY=1;exitDx=0;exitDy=0;" parent="1" source="c53mcl23ytwHgsnoRXT7-33" target="c53mcl23ytwHgsnoRXT7-37" edge="1">
          <mxGeometry relative="1" as="geometry" />
        </mxCell>
        <mxCell id="c53mcl23ytwHgsnoRXT7-48" style="edgeStyle=orthogonalEdgeStyle;rounded=0;orthogonalLoop=1;jettySize=auto;html=1;entryX=0.5;entryY=0;entryDx=0;entryDy=0;exitX=-0.009;exitY=0.632;exitDx=0;exitDy=0;exitPerimeter=0;" parent="1" target="c53mcl23ytwHgsnoRXT7-47" edge="1">
          <mxGeometry relative="1" as="geometry">
            <mxPoint x="1037.445" y="494.6" as="sourcePoint" />
            <Array as="points">
              <mxPoint x="1037.99" y="415" />
              <mxPoint x="899.99" y="415" />
            </Array>
          </mxGeometry>
        </mxCell>
        <mxCell id="c53mcl23ytwHgsnoRXT7-49" value="Request feedback" style="edgeLabel;html=1;align=center;verticalAlign=middle;resizable=0;points=[];" parent="c53mcl23ytwHgsnoRXT7-48" vertex="1" connectable="0">
          <mxGeometry x="0.1201" y="-1" relative="1" as="geometry">
            <mxPoint x="8" as="offset" />
          </mxGeometry>
        </mxCell>
        <mxCell id="c53mcl23ytwHgsnoRXT7-37" value="" style="html=1;points=[];perimeter=orthogonalPerimeter;fillColor=strokeColor;" parent="1" vertex="1">
          <mxGeometry x="1032.5" y="220" width="5" height="300" as="geometry" />
        </mxCell>
        <mxCell id="c53mcl23ytwHgsnoRXT7-45" style="edgeStyle=orthogonalEdgeStyle;rounded=0;orthogonalLoop=1;jettySize=auto;html=1;exitX=1.5;exitY=0.167;exitDx=0;exitDy=0;exitPerimeter=0;entryX=1.212;entryY=0.496;entryDx=0;entryDy=0;entryPerimeter=0;" parent="1" source="c53mcl23ytwHgsnoRXT7-37" target="c53mcl23ytwHgsnoRXT7-37" edge="1">
          <mxGeometry relative="1" as="geometry">
            <mxPoint x="1050" y="310" as="targetPoint" />
            <mxPoint x="1038.855" y="259.24" as="sourcePoint" />
            <Array as="points">
              <mxPoint x="1140" y="270" />
              <mxPoint x="1140" y="369" />
            </Array>
          </mxGeometry>
        </mxCell>
        <mxCell id="c53mcl23ytwHgsnoRXT7-46" value="Reviews request" style="edgeLabel;html=1;align=center;verticalAlign=middle;resizable=0;points=[];" parent="c53mcl23ytwHgsnoRXT7-45" vertex="1" connectable="0">
          <mxGeometry x="0.071" y="2" relative="1" as="geometry">
            <mxPoint x="-2" y="-5" as="offset" />
          </mxGeometry>
        </mxCell>
        <mxCell id="c53mcl23ytwHgsnoRXT7-50" style="edgeStyle=orthogonalEdgeStyle;rounded=0;orthogonalLoop=1;jettySize=auto;html=1;entryX=1.02;entryY=0.934;entryDx=0;entryDy=0;entryPerimeter=0;" parent="1" edge="1">
          <mxGeometry relative="1" as="geometry">
            <mxPoint x="747.5000000000001" y="499.8299999999999" as="targetPoint" />
            <mxPoint x="875.0899999999998" y="499.8299999999999" as="sourcePoint" />
            <Array as="points">
              <mxPoint x="810.9" y="499.63" />
            </Array>
          </mxGeometry>
        </mxCell>
        <mxCell id="c53mcl23ytwHgsnoRXT7-56" value="Yes/send notif" style="edgeLabel;html=1;align=center;verticalAlign=middle;resizable=0;points=[];fontSize=12;" parent="c53mcl23ytwHgsnoRXT7-50" vertex="1" connectable="0">
          <mxGeometry x="0.4912" relative="1" as="geometry">
            <mxPoint x="40" as="offset" />
          </mxGeometry>
        </mxCell>
        <mxCell id="c53mcl23ytwHgsnoRXT7-51" style="edgeStyle=orthogonalEdgeStyle;rounded=0;orthogonalLoop=1;jettySize=auto;html=1;" parent="1" source="c53mcl23ytwHgsnoRXT7-47" edge="1">
          <mxGeometry relative="1" as="geometry">
            <mxPoint x="974.99" y="575" as="targetPoint" />
            <Array as="points">
              <mxPoint x="974.99" y="500" />
            </Array>
          </mxGeometry>
        </mxCell>
        <mxCell id="c53mcl23ytwHgsnoRXT7-52" value="&lt;font style=&quot;font-size: 12px;&quot;&gt;No&lt;/font&gt;" style="edgeLabel;html=1;align=center;verticalAlign=middle;resizable=0;points=[];fontSize=6;" parent="c53mcl23ytwHgsnoRXT7-51" vertex="1" connectable="0">
          <mxGeometry x="0.5118" y="-3" relative="1" as="geometry">
            <mxPoint x="3" y="-9" as="offset" />
          </mxGeometry>
        </mxCell>
        <mxCell id="c53mcl23ytwHgsnoRXT7-47" value="&lt;font style=&quot;font-size: 6px;&quot;&gt;Did supplier&lt;br&gt;give items&amp;nbsp;&lt;/font&gt;" style="rhombus;whiteSpace=wrap;html=1;" parent="1" vertex="1">
          <mxGeometry x="874.99" y="475" width="50" height="50" as="geometry" />
        </mxCell>
        <mxCell id="c53mcl23ytwHgsnoRXT7-55" value="" style="ellipse;html=1;shape=endState;fillColor=#000000;strokeColor=#ff0000;fontSize=12;rotation=5;" parent="1" vertex="1">
          <mxGeometry x="960" y="575" width="40" height="40" as="geometry" />
        </mxCell>
        <mxCell id="c53mcl23ytwHgsnoRXT7-58" value="Finance buying items" style="shape=umlFrame;whiteSpace=wrap;html=1;width=120;height=30;boundedLbl=1;verticalAlign=middle;align=left;spacingLeft=5;fontSize=12;" parent="1" vertex="1">
          <mxGeometry x="550" y="110" width="640" height="420" as="geometry" />
        </mxCell>
        <mxCell id="Tr6KO6QDgBk20_RHtYuu-3" style="edgeStyle=orthogonalEdgeStyle;rounded=0;orthogonalLoop=1;jettySize=auto;html=1;fontSize=12;exitX=0.158;exitY=1.002;exitDx=0;exitDy=0;exitPerimeter=0;entryX=1;entryY=0.5;entryDx=0;entryDy=0;" edge="1" parent="1" source="c53mcl23ytwHgsnoRXT7-58" target="Tr6KO6QDgBk20_RHtYuu-1">
          <mxGeometry relative="1" as="geometry" />
        </mxCell>
        <mxCell id="Tr6KO6QDgBk20_RHtYuu-4" style="edgeStyle=orthogonalEdgeStyle;rounded=0;orthogonalLoop=1;jettySize=auto;html=1;fontSize=12;" edge="1" parent="1" source="Tr6KO6QDgBk20_RHtYuu-1">
          <mxGeometry relative="1" as="geometry">
            <mxPoint x="419.9999999999998" y="760" as="targetPoint" />
          </mxGeometry>
        </mxCell>
        <mxCell id="Tr6KO6QDgBk20_RHtYuu-1" value="Print PDF with bought items" style="rhombus;whiteSpace=wrap;html=1;" vertex="1" parent="1">
          <mxGeometry x="379.99999999999994" y="650" width="80" height="80" as="geometry" />
        </mxCell>
        <mxCell id="Tr6KO6QDgBk20_RHtYuu-5" value="" style="ellipse;html=1;shape=endState;fillColor=#000000;strokeColor=#ff0000;fontSize=12;rotation=5;" vertex="1" parent="1">
          <mxGeometry x="400" y="760" width="40" height="40" as="geometry" />
        </mxCell>
      </root>
    </mxGraphModel>
  </diagram>
</mxfile>
